<svg id="Layer_1" data-name="Layer 1" xmlns="http://www.w3.org/2000/svg" viewBox="0 0 615.89 595.28"><title>Artboard 1</title><path d="M448.55,363.15l23.2-23.64,39.81,40.16-24.71,23.71c24.38,25.9,47.94,50.94,72,76.53l11.94-12.86,39.4,39.67-83.94,83.75-39-39.53,13.09-12-75.94-71.37c-8.35,8.5-16.54,16.84-24.48,24.94L359.3,451.61l23.57-23.08-74.5-70.18-74.64,70.41L257,451.41l-40.63,40.74-23.78-24.79-75.95,71.39,12.89,11.74-40.3,40L5.69,506.89,45.2,467.23l12,13.35L129,404.49,103.79,380c13.91-13.8,27.13-26.9,40.36-40l23.35,23.42,68.69-72.92c-9.52-9-18.78-17.79-28.07-26.54l-121-113.93c-10.45-9.84-20.95-19.62-31.29-29.57a12.87,12.87,0,0,1-3.47-5.71Q39,62.38,26,9.89c-.35-1.43-.58-2.9-1-5.15,6.62,1.59,12.55,3,18.46,4.44q45.5,11.4,91,22.92a13.5,13.5,0,0,1,6.15,3.56q87.55,92.76,175,185.66Q380.77,290.59,446,359.9C446.7,360.68,447.31,361.58,448.55,363.15Z"/><path d="M592,4.89c-5,20-9.72,39.24-14.53,58.5-4.29,17.17-8.58,34.35-13,51.49a11.09,11.09,0,0,1-2.85,5.06q-71.21,67.2-142.52,134.27a9.61,9.61,0,0,1-1.1.83l-76.74-76.22q21-22.29,41.88-44.52,46-48.86,92.14-97.62a17.72,17.72,0,0,1,8-4.77c35-9,70.16-17.7,105.26-26.48C589.39,5.21,590.3,5.15,592,4.89Z"/></svg>