<?xml version="1.0" standalone="no"?>
<!DOCTYPE svg PUBLIC "-//W3C//DTD SVG 20010904//EN"
 "http://www.w3.org/TR/2001/REC-SVG-20010904/DTD/svg10.dtd">
<svg version="1.0" xmlns="http://www.w3.org/2000/svg"
 width="700.000000pt" height="700.000000pt" viewBox="0 0 700.000000 700.000000"
 preserveAspectRatio="xMidYMid meet">
<metadata>
Created by potrace 1.14, written by Peter Selinger 2001-2017
</metadata>
<g transform="translate(0.000000,700.000000) scale(0.100000,-0.100000)"
fill="#000000" stroke="none">
<path d="M1801 6582 c-20 -15 -60 -116 -199 -502 -16 -47 -51 -143 -77 -215
-26 -71 -69 -193 -97 -270 -27 -77 -55 -150 -60 -162 -18 -38 1 -73 128 -232
248 -311 304 -384 300 -388 -2 -2 -16 -6 -32 -8 -88 -14 -93 -16 -100 -38 -4
-12 -6 -39 -5 -59 2 -37 2 -38 -64 -69 -116 -55 -163 -109 -256 -292 -45 -89
-88 -167 -95 -175 -8 -7 -17 -19 -21 -26 -16 -26 -98 -77 -147 -91 -28 -8 -85
-17 -126 -21 -77 -6 -120 -24 -116 -46 9 -50 61 -143 110 -197 38 -41 144
-111 206 -135 216 -86 517 -32 715 127 38 31 70 55 71 54 1 -1 5 -20 8 -42 4
-22 11 -65 16 -95 12 -66 20 -121 25 -175 3 -22 7 -49 10 -61 2 -12 7 -36 10
-55 2 -19 14 -95 25 -169 12 -74 23 -151 26 -170 3 -19 10 -64 15 -100 6 -36
12 -81 15 -100 4 -31 8 -58 29 -175 19 -112 19 -124 -6 -144 -14 -10 -35 -41
-49 -67 -60 -122 -23 -288 85 -370 41 -31 42 -34 60 -159 3 -22 11 -67 16
-100 6 -33 13 -73 15 -90 2 -16 6 -41 9 -55 17 -87 25 -129 29 -155 3 -16 19
-100 35 -185 17 -85 33 -171 36 -192 2 -20 11 -76 20 -123 8 -48 18 -113 21
-144 3 -31 8 -59 9 -62 2 -3 7 -28 10 -55 28 -218 76 -308 193 -362 115 -52
256 -23 338 71 40 47 52 70 68 139 l11 47 54 -65 c76 -91 110 -123 156 -146
41 -22 272 -67 315 -62 14 2 63 3 110 4 59 1 97 7 127 20 24 11 65 19 94 18
38 0 60 6 91 27 45 30 66 30 193 0 170 -40 376 -42 556 -5 50 11 60 10 97 -9
26 -13 68 -23 113 -26 39 -3 97 -12 129 -20 83 -21 140 -19 228 11 142 47 258
108 315 166 79 80 166 265 265 563 55 165 77 261 87 375 30 336 17 519 -57
799 -43 166 -45 175 -42 193 1 9 43 75 92 145 147 209 174 280 169 448 -2 86
0 94 32 158 l34 68 -22 30 c-13 17 -24 44 -25 60 -1 16 -12 39 -23 51 -33 36
-112 163 -138 223 -14 30 -50 132 -80 227 -31 95 -60 182 -65 193 -26 63 -46
104 -72 148 -16 28 -26 53 -21 57 4 4 31 15 58 25 72 26 139 98 161 172 33
111 14 283 -41 376 -57 96 -114 139 -189 141 -88 2 -151 -55 -205 -184 -13
-30 -24 -56 -26 -58 -1 -1 -42 20 -91 49 -172 99 -368 182 -481 204 -125 24
-412 24 -543 0 -14 -2 -41 -7 -60 -9 -132 -17 -377 -85 -544 -150 -247 -97
-420 -206 -606 -383 -30 -29 -60 -53 -67 -53 -25 0 -33 39 -27 127 11 145 11
166 0 208 -12 50 -50 108 -85 132 -17 11 -46 17 -86 18 -74 0 -149 -34 -214
-97 -48 -47 -111 -138 -111 -162 0 -8 -5 -18 -11 -21 -6 -4 -9 -1 -8 6 4 18
-21 178 -33 208 -8 22 -12 23 -67 18 -32 -2 -63 -2 -70 2 -8 5 25 101 106 307
86 220 117 311 118 344 0 43 -7 54 -153 245 -84 110 -164 214 -178 231 -13 17
-85 112 -160 210 -74 99 -140 186 -147 194 -7 8 -34 43 -60 77 -59 78 -78 89
-106 65z m3454 -1807 c110 -26 201 -48 203 -50 2 -2 -19 -67 -24 -74 -5 -6
-112 39 -193 82 -41 21 -113 52 -160 68 -113 38 -70 32 174 -26z m595 13 c0
-12 -6 -9 -26 13 -19 22 -19 22 4 8 12 -8 22 -17 22 -21z m-3293 -270 c3 -69
53 -181 116 -261 25 -32 44 -66 42 -75 -2 -9 -17 -55 -35 -101 -21 -57 -32
-108 -35 -159 -2 -40 -11 -95 -20 -121 -15 -47 -64 -124 -66 -105 -1 5 -3 18
-4 29 -1 11 -8 54 -14 95 -7 41 -15 89 -17 105 -2 17 -6 41 -9 55 -2 14 -7 43
-10 65 -3 22 -7 51 -10 65 -2 14 -7 43 -10 65 -10 75 -37 250 -45 293 -4 23
-7 42 -6 42 0 1 19 3 41 6 22 4 42 8 44 10 10 9 38 3 38 -8z m3098 -298 c3 -6
-1 -7 -9 -4 -18 7 -21 14 -7 14 6 0 13 -4 16 -10z m65 -60 c0 -5 -2 -10 -4
-10 -3 0 -8 5 -11 10 -3 6 -1 10 4 10 6 0 11 -4 11 -10z m57 -282 c-3 -8 -6
-5 -6 6 -1 11 2 17 5 13 3 -3 4 -12 1 -19z m10 -50 c-3 -7 -5 -2 -5 12 0 14 2
19 5 13 2 -7 2 -19 0 -25z m22 -58 c0 -10 -3 -8 -9 5 -12 27 -12 43 0 25 5 -8
9 -22 9 -30z m20 -52 c6 -18 7 -28 2 -23 -10 12 -25 55 -18 55 3 0 10 -15 16
-32z m29 -73 c-3 -3 -9 2 -12 12 -6 14 -5 15 5 6 7 -7 10 -15 7 -18z m31 -60
c0 -5 -6 -1 -14 9 -8 11 -15 24 -15 30 0 5 7 1 15 -10 8 -10 14 -23 14 -29z
m15 -31 c3 -8 2 -12 -4 -9 -6 3 -10 10 -10 16 0 14 7 11 14 -7z m14 -55 c-3
-8 -7 -3 -11 10 -4 17 -3 21 5 13 5 -5 8 -16 6 -23z m31 -99 c0 -9 -4 -8 -9 5
-5 11 -9 27 -9 35 0 9 4 8 9 -5 5 -11 9 -27 9 -35z m29 -105 c0 -16 -2 -15 -8
5 -11 34 -11 60 0 35 5 -11 8 -29 8 -40z m-2896 -710 c9 -20 9 -20 -6 -1 -9
11 -16 27 -15 35 0 14 1 14 6 1 3 -8 10 -24 15 -35z m266 -150 c-3 -3 -9 2
-12 12 -6 14 -5 15 5 6 7 -7 10 -15 7 -18z m232 -166 c15 -28 5 -23 -15 7 -9
15 -12 23 -6 20 6 -4 16 -16 21 -27z m141 -46 c13 -16 12 -17 -3 -4 -17 13
-22 21 -14 21 2 0 10 -8 17 -17z m1159 -1247 c0 -2 -8 -10 -17 -17 -16 -13
-17 -12 -4 4 13 16 21 21 21 13z m-1135 -126 c10 -11 16 -20 13 -20 -3 0 -13
9 -23 20 -10 11 -16 20 -13 20 3 0 13 -9 23 -20z"/>
</g>
</svg>
